<svg aria-hidden="true" style="position: absolute; width: 0; height: 0; overflow: hidden;" version="1.1" xmlns="http://www.w3.org/2000/svg" xmlns:xlink="http://www.w3.org/1999/xlink">
<defs>
<symbol id="icon-logo" viewBox="0 0 57 32">
<path fill="#fff" style="fill: var(--color1, #fff)" d="M16.73 4.384l0.499 0.498-0.294 0.294v1.27h0.744l0.192-0.192 0.363 0.362-0.363 0.362-0.192-0.192h-0.5v0.51h2.984v0.884h-2.984v1.326h1.452v0.884h-1.452v2.993l-0.443 0.68-0.442-0.68v-4.549l-1.173 1.894-1.084-1.796v2.797c0 0.582 0.262 1.134 0.714 1.502l1.907 1.554 1.907-1.554c0.452-0.368 0.714-0.919 0.714-1.502v-3.171h0.885v3.171c0 0.848-0.382 1.651-1.040 2.187l-2.466 2.010-2.466-2.010c-0.658-0.536-1.039-1.339-1.039-2.187v-4.433h0.885l1.094 1.737 1.164-1.704v-0.543h-0.512l-0.192 0.192-0.363-0.362 0.363-0.362 0.192 0.192h0.744v-1.27l-0.295-0.294 0.499-0.498zM16.668 6.786h0.136v6.53l-0.068 0.136-0.068-0.136v-6.53z"></path>
<path fill="#000" style="fill: var(--color2, #000)" d="M16.73 4.384l0.499 0.498-0.294 0.294v1.27h0.744l0.192-0.192 0.363 0.362-0.363 0.362-0.192-0.192h-0.5v0.51h2.984v0.884h-2.984v1.326h1.452v0.884h-1.452v2.993l-0.443 0.68-0.442-0.68v-4.549l-1.173 1.894-1.084-1.796v2.797c0 0.582 0.262 1.134 0.714 1.502l1.907 1.554 1.907-1.554c0.452-0.368 0.714-0.919 0.714-1.502v-3.171h0.885v3.171c0 0.848-0.382 1.651-1.040 2.187l-2.466 2.010-2.466-2.010c-0.658-0.536-1.039-1.339-1.039-2.187v-4.433h0.885l1.094 1.737 1.164-1.704v-0.543h-0.512l-0.192 0.192-0.363-0.362 0.363-0.362 0.192 0.192h0.744v-1.27l-0.295-0.294 0.499-0.498zM16.668 6.786h0.136v6.53l-0.068 0.136-0.068-0.136v-6.53z"></path>
<path fill="#fff" style="fill: var(--color1, #fff)" d="M26.15 7.897c-0.006-0.067-0.033-0.12-0.082-0.157s-0.116-0.057-0.205-0.057c-0.059 0-0.108 0.008-0.147 0.023s-0.069 0.036-0.088 0.063c-0.011 0.014-0.019 0.030-0.024 0.047-0.004 0.014-0.006 0.029-0.007 0.044-0.001 0.028 0.004 0.053 0.017 0.074s0.031 0.040 0.055 0.057c0.025 0.016 0.054 0.030 0.088 0.042s0.073 0.023 0.116 0.032l0.162 0.037c0.057 0.012 0.109 0.027 0.158 0.044 0.031 0.011 0.061 0.023 0.088 0.036 0.072 0.034 0.132 0.074 0.18 0.12s0.086 0.1 0.111 0.161 0.038 0.129 0.038 0.204c-0 0.119-0.031 0.221-0.090 0.306-0.033 0.047-0.073 0.088-0.122 0.123-0.040 0.028-0.084 0.053-0.134 0.073-0.111 0.045-0.245 0.068-0.402 0.068s-0.294-0.024-0.411-0.071-0.208-0.119-0.273-0.215c-0.065-0.096-0.098-0.218-0.1-0.364h0.436c0.003 0.061 0.020 0.111 0.049 0.151s0.068 0.071 0.118 0.092c0.051 0.021 0.11 0.031 0.177 0.031 0.061 0 0.113-0.008 0.156-0.025s0.077-0.039 0.1-0.069c0.023-0.029 0.035-0.063 0.036-0.101-0.001-0.036-0.012-0.066-0.033-0.091-0.012-0.015-0.029-0.028-0.049-0.041-0.015-0.009-0.031-0.017-0.050-0.025-0.016-0.007-0.034-0.014-0.054-0.021-0.033-0.011-0.072-0.022-0.115-0.032l-0.197-0.046c-0.163-0.037-0.291-0.098-0.385-0.181s-0.14-0.197-0.14-0.34c-0.001-0.116 0.031-0.218 0.094-0.306s0.15-0.156 0.262-0.205c0.111-0.049 0.238-0.073 0.381-0.073 0.146 0 0.272 0.025 0.379 0.074s0.191 0.118 0.251 0.207c0.059 0.089 0.090 0.192 0.091 0.308h-0.436z"></path>
<path fill="#000" style="fill: var(--color2, #000)" d="M26.15 7.897c-0.006-0.067-0.033-0.12-0.082-0.157s-0.116-0.057-0.205-0.057c-0.059 0-0.108 0.008-0.147 0.023s-0.069 0.036-0.088 0.063c-0.011 0.014-0.019 0.030-0.024 0.047-0.004 0.014-0.006 0.029-0.007 0.044-0.001 0.028 0.004 0.053 0.017 0.074s0.031 0.040 0.055 0.057c0.025 0.016 0.054 0.030 0.088 0.042s0.073 0.023 0.116 0.032l0.162 0.037c0.057 0.012 0.109 0.027 0.158 0.044 0.031 0.011 0.061 0.023 0.088 0.036 0.072 0.034 0.132 0.074 0.18 0.12s0.086 0.1 0.111 0.161 0.038 0.129 0.038 0.204c-0 0.119-0.031 0.221-0.090 0.306-0.033 0.047-0.073 0.088-0.122 0.123-0.040 0.028-0.084 0.053-0.134 0.073-0.111 0.045-0.245 0.068-0.402 0.068s-0.294-0.024-0.411-0.071-0.208-0.119-0.273-0.215c-0.065-0.096-0.098-0.218-0.1-0.364h0.436c0.003 0.061 0.020 0.111 0.049 0.151s0.068 0.071 0.118 0.092c0.051 0.021 0.11 0.031 0.177 0.031 0.061 0 0.113-0.008 0.156-0.025s0.077-0.039 0.1-0.069c0.023-0.029 0.035-0.063 0.036-0.101-0.001-0.036-0.012-0.066-0.033-0.091-0.012-0.015-0.029-0.028-0.049-0.041-0.015-0.009-0.031-0.017-0.050-0.025-0.016-0.007-0.034-0.014-0.054-0.021-0.033-0.011-0.072-0.022-0.115-0.032l-0.197-0.046c-0.163-0.037-0.291-0.098-0.385-0.181s-0.14-0.197-0.14-0.34c-0.001-0.116 0.031-0.218 0.094-0.306s0.15-0.156 0.262-0.205c0.111-0.049 0.238-0.073 0.381-0.073 0.146 0 0.272 0.025 0.379 0.074s0.191 0.118 0.251 0.207c0.059 0.089 0.090 0.192 0.091 0.308h-0.436z"></path>
<path fill="#fff" style="fill: var(--color1, #fff)" d="M22.365 7.333h-0.563v1.88h0.443v-1.161h0.016l0.452 1.149h0.283l0.452-1.143h0.016v1.155h0.443v-1.88h-0.563l-0.478 1.164h-0.022l-0.478-1.164z"></path>
<path fill="#000" style="fill: var(--color2, #000)" d="M22.365 7.333h-0.563v1.88h0.443v-1.161h0.016l0.452 1.149h0.283l0.452-1.143h0.016v1.155h0.443v-1.88h-0.563l-0.478 1.164h-0.022l-0.478-1.164z"></path>
<path fill="#fff" style="fill: var(--color1, #fff)" d="M24.746 9.213v-1.88h-0.455v1.88h0.455z"></path>
<path fill="#000" style="fill: var(--color2, #000)" d="M24.746 9.213v-1.88h-0.455v1.88h0.455z"></path>
<path fill="#fff" style="fill: var(--color1, #fff)" d="M27.934 7.804c0.014 0.027 0.023 0.058 0.026 0.092h0.436c-0.001-0.117-0.032-0.22-0.091-0.308s-0.143-0.158-0.251-0.207c-0.107-0.050-0.234-0.074-0.379-0.074-0.143 0-0.27 0.024-0.381 0.073s-0.199 0.117-0.262 0.205c-0.063 0.088-0.094 0.189-0.094 0.306-0 0.143 0.046 0.256 0.14 0.34s0.222 0.143 0.385 0.181l0.197 0.046c0.069 0.016 0.125 0.033 0.169 0.052s0.078 0.040 0.099 0.066c0.021 0.025 0.032 0.055 0.033 0.091-0 0.038-0.012 0.072-0.036 0.101s-0.057 0.052-0.1 0.069c-0.026 0.010-0.056 0.017-0.089 0.021-0.021 0.002-0.043 0.004-0.067 0.004-0.067 0-0.126-0.010-0.177-0.031s-0.090-0.051-0.118-0.092c-0.029-0.040-0.045-0.091-0.049-0.151h-0.436c0.002 0.147 0.035 0.268 0.1 0.364s0.156 0.168 0.273 0.215c0.117 0.047 0.254 0.071 0.411 0.071s0.291-0.023 0.402-0.068c0.111-0.045 0.197-0.11 0.256-0.196s0.089-0.187 0.090-0.306c-0-0.047-0.005-0.091-0.015-0.132-0.006-0.025-0.014-0.049-0.023-0.072-0.025-0.061-0.062-0.114-0.111-0.161s-0.108-0.087-0.18-0.12c-0.071-0.034-0.153-0.061-0.246-0.081l-0.162-0.037c-0.043-0.009-0.081-0.020-0.116-0.032s-0.064-0.026-0.088-0.042c-0.016-0.011-0.029-0.023-0.040-0.037-0.006-0.007-0.010-0.013-0.015-0.020-0.012-0.021-0.018-0.046-0.016-0.074 0-0.034 0.011-0.065 0.030-0.091s0.049-0.048 0.088-0.063c0.039-0.015 0.088-0.023 0.147-0.023 0.089 0 0.157 0.019 0.205 0.057 0.023 0.018 0.042 0.040 0.055 0.065z"></path>
<path fill="#000" style="fill: var(--color2, #000)" d="M27.934 7.804c0.014 0.027 0.023 0.058 0.026 0.092h0.436c-0.001-0.117-0.032-0.22-0.091-0.308s-0.143-0.158-0.251-0.207c-0.107-0.050-0.234-0.074-0.379-0.074-0.143 0-0.27 0.024-0.381 0.073s-0.199 0.117-0.262 0.205c-0.063 0.088-0.094 0.189-0.094 0.306-0 0.143 0.046 0.256 0.14 0.34s0.222 0.143 0.385 0.181l0.197 0.046c0.069 0.016 0.125 0.033 0.169 0.052s0.078 0.040 0.099 0.066c0.021 0.025 0.032 0.055 0.033 0.091-0 0.038-0.012 0.072-0.036 0.101s-0.057 0.052-0.1 0.069c-0.026 0.010-0.056 0.017-0.089 0.021-0.021 0.002-0.043 0.004-0.067 0.004-0.067 0-0.126-0.010-0.177-0.031s-0.090-0.051-0.118-0.092c-0.029-0.040-0.045-0.091-0.049-0.151h-0.436c0.002 0.147 0.035 0.268 0.1 0.364s0.156 0.168 0.273 0.215c0.117 0.047 0.254 0.071 0.411 0.071s0.291-0.023 0.402-0.068c0.111-0.045 0.197-0.11 0.256-0.196s0.089-0.187 0.090-0.306c-0-0.047-0.005-0.091-0.015-0.132-0.006-0.025-0.014-0.049-0.023-0.072-0.025-0.061-0.062-0.114-0.111-0.161s-0.108-0.087-0.18-0.12c-0.071-0.034-0.153-0.061-0.246-0.081l-0.162-0.037c-0.043-0.009-0.081-0.020-0.116-0.032s-0.064-0.026-0.088-0.042c-0.016-0.011-0.029-0.023-0.040-0.037-0.006-0.007-0.010-0.013-0.015-0.020-0.012-0.021-0.018-0.046-0.016-0.074 0-0.034 0.011-0.065 0.030-0.091s0.049-0.048 0.088-0.063c0.039-0.015 0.088-0.023 0.147-0.023 0.089 0 0.157 0.019 0.205 0.057 0.023 0.018 0.042 0.040 0.055 0.065z"></path>
<path fill="#fff" style="fill: var(--color1, #fff)" d="M29.208 7.333v1.88h-0.455v-1.88h0.455z"></path>
<path fill="#000" style="fill: var(--color2, #000)" d="M29.208 7.333v1.88h-0.455v-1.88h0.455z"></path>
<path fill="#fff" style="fill: var(--color1, #fff)" d="M31.252 8.799c0.079-0.144 0.119-0.319 0.119-0.526s-0.040-0.382-0.119-0.526c-0.079-0.144-0.187-0.253-0.323-0.328s-0.287-0.112-0.455-0.112c-0.169 0-0.321 0.037-0.457 0.112s-0.243 0.184-0.322 0.328c-0.079 0.144-0.118 0.319-0.118 0.526s0.039 0.381 0.118 0.525c0.080 0.143 0.187 0.252 0.322 0.328s0.287 0.113 0.457 0.113c0.168 0 0.32-0.037 0.455-0.112s0.244-0.184 0.323-0.328zM30.854 7.963c0.035 0.084 0.052 0.188 0.052 0.31s-0.017 0.226-0.052 0.31c-0.034 0.084-0.084 0.148-0.149 0.192s-0.142 0.065-0.232 0.065c-0.090 0-0.168-0.022-0.232-0.065s-0.115-0.107-0.15-0.192c-0.034-0.084-0.052-0.188-0.052-0.31s0.017-0.226 0.052-0.31c0.035-0.084 0.084-0.148 0.15-0.192s0.142-0.065 0.232-0.065c0.090 0 0.168 0.022 0.232 0.065 0.030 0.020 0.057 0.045 0.080 0.074 0.027 0.034 0.050 0.073 0.068 0.118z"></path>
<path fill="#000" style="fill: var(--color2, #000)" d="M31.252 8.799c0.079-0.144 0.119-0.319 0.119-0.526s-0.040-0.382-0.119-0.526c-0.079-0.144-0.187-0.253-0.323-0.328s-0.287-0.112-0.455-0.112c-0.169 0-0.321 0.037-0.457 0.112s-0.243 0.184-0.322 0.328c-0.079 0.144-0.118 0.319-0.118 0.526s0.039 0.381 0.118 0.525c0.080 0.143 0.187 0.252 0.322 0.328s0.287 0.113 0.457 0.113c0.168 0 0.32-0.037 0.455-0.112s0.244-0.184 0.323-0.328zM30.854 7.963c0.035 0.084 0.052 0.188 0.052 0.31s-0.017 0.226-0.052 0.31c-0.034 0.084-0.084 0.148-0.149 0.192s-0.142 0.065-0.232 0.065c-0.090 0-0.168-0.022-0.232-0.065s-0.115-0.107-0.15-0.192c-0.034-0.084-0.052-0.188-0.052-0.31s0.017-0.226 0.052-0.31c0.035-0.084 0.084-0.148 0.15-0.192s0.142-0.065 0.232-0.065c0.090 0 0.168 0.022 0.232 0.065 0.030 0.020 0.057 0.045 0.080 0.074 0.027 0.034 0.050 0.073 0.068 0.118z"></path>
<path fill="#fff" style="fill: var(--color1, #fff)" d="M33.34 9.213h-0.386l-0.749-1.085h-0.012v1.085h-0.455v-1.88h0.391l0.741 1.083h0.016v-1.083h0.454v1.88z"></path>
<path fill="#000" style="fill: var(--color2, #000)" d="M33.34 9.213h-0.386l-0.749-1.085h-0.012v1.085h-0.455v-1.88h0.391l0.741 1.083h0.016v-1.083h0.454v1.88z"></path>
<path fill="#fff" style="fill: var(--color1, #fff)" d="M28.476 10.668c-0.010-0.039-0.026-0.073-0.046-0.102s-0.045-0.055-0.074-0.076c-0.029-0.021-0.063-0.036-0.101-0.047s-0.079-0.017-0.125-0.017c-0.091 0-0.171 0.022-0.237 0.066s-0.117 0.108-0.153 0.193c-0.036 0.084-0.054 0.186-0.054 0.306s0.017 0.223 0.052 0.308c0.035 0.085 0.086 0.15 0.152 0.195s0.146 0.067 0.241 0.067c0.083 0 0.154-0.013 0.211-0.040 0.031-0.014 0.058-0.032 0.080-0.053 0.020-0.019 0.038-0.040 0.052-0.064 0.018-0.030 0.030-0.063 0.037-0.099 0.004-0.022 0.007-0.044 0.007-0.068h-0.373v-0.331h0.811v0.249c0 0.168-0.036 0.312-0.108 0.432s-0.169 0.212-0.294 0.276c-0.124 0.064-0.267 0.096-0.429 0.096-0.179 0-0.337-0.039-0.473-0.117s-0.242-0.188-0.318-0.332c-0.076-0.144-0.114-0.316-0.114-0.514 0-0.154 0.023-0.291 0.069-0.41s0.11-0.222 0.192-0.305c0.083-0.083 0.178-0.146 0.287-0.189s0.226-0.064 0.352-0.064c0.109 0 0.21 0.016 0.304 0.047s0.178 0.075 0.25 0.132c0.073 0.057 0.132 0.125 0.177 0.203s0.073 0.164 0.085 0.258h-0.46z"></path>
<path fill="#000" style="fill: var(--color2, #000)" d="M28.476 10.668c-0.010-0.039-0.026-0.073-0.046-0.102s-0.045-0.055-0.074-0.076c-0.029-0.021-0.063-0.036-0.101-0.047s-0.079-0.017-0.125-0.017c-0.091 0-0.171 0.022-0.237 0.066s-0.117 0.108-0.153 0.193c-0.036 0.084-0.054 0.186-0.054 0.306s0.017 0.223 0.052 0.308c0.035 0.085 0.086 0.15 0.152 0.195s0.146 0.067 0.241 0.067c0.083 0 0.154-0.013 0.211-0.040 0.031-0.014 0.058-0.032 0.080-0.053 0.020-0.019 0.038-0.040 0.052-0.064 0.018-0.030 0.030-0.063 0.037-0.099 0.004-0.022 0.007-0.044 0.007-0.068h-0.373v-0.331h0.811v0.249c0 0.168-0.036 0.312-0.108 0.432s-0.169 0.212-0.294 0.276c-0.124 0.064-0.267 0.096-0.429 0.096-0.179 0-0.337-0.039-0.473-0.117s-0.242-0.188-0.318-0.332c-0.076-0.144-0.114-0.316-0.114-0.514 0-0.154 0.023-0.291 0.069-0.41s0.11-0.222 0.192-0.305c0.083-0.083 0.178-0.146 0.287-0.189s0.226-0.064 0.352-0.064c0.109 0 0.21 0.016 0.304 0.047s0.178 0.075 0.25 0.132c0.073 0.057 0.132 0.125 0.177 0.203s0.073 0.164 0.085 0.258h-0.46z"></path>
<path fill="#fff" style="fill: var(--color1, #fff)" d="M21.802 11.933v-1.88h1.284v0.369h-0.829v0.386h0.748v0.37h-0.748v0.755h-0.455z"></path>
<path fill="#000" style="fill: var(--color2, #000)" d="M21.802 11.933v-1.88h1.284v0.369h-0.829v0.386h0.748v0.37h-0.748v0.755h-0.455z"></path>
<path fill="#fff" style="fill: var(--color1, #fff)" d="M23.417 11.933h0.455v-0.643h0.233l0.344 0.643h0.496l-0.39-0.715c0.104-0.048 0.184-0.117 0.24-0.206 0.057-0.091 0.086-0.202 0.086-0.332 0-0.129-0.028-0.24-0.084-0.333s-0.135-0.166-0.238-0.217c-0.102-0.051-0.224-0.076-0.365-0.076h-0.777v1.88zM24.096 10.932h-0.224v-0.512h0.224c0.068 0 0.125 0.010 0.172 0.029 0.022 0.009 0.042 0.020 0.059 0.034 0.019 0.015 0.034 0.032 0.047 0.053 0.019 0.030 0.030 0.066 0.034 0.109 0.001 0.011 0.002 0.023 0.002 0.035 0 0.058-0.012 0.106-0.036 0.143s-0.059 0.064-0.106 0.083c-0.046 0.018-0.103 0.027-0.172 0.027z"></path>
<path fill="#000" style="fill: var(--color2, #000)" d="M23.417 11.933h0.455v-0.643h0.233l0.344 0.643h0.496l-0.39-0.715c0.104-0.048 0.184-0.117 0.24-0.206 0.057-0.091 0.086-0.202 0.086-0.332 0-0.129-0.028-0.24-0.084-0.333s-0.135-0.166-0.238-0.217c-0.102-0.051-0.224-0.076-0.365-0.076h-0.777v1.88zM24.096 10.932h-0.224v-0.512h0.224c0.068 0 0.125 0.010 0.172 0.029 0.022 0.009 0.042 0.020 0.059 0.034 0.019 0.015 0.034 0.032 0.047 0.053 0.019 0.030 0.030 0.066 0.034 0.109 0.001 0.011 0.002 0.023 0.002 0.035 0 0.058-0.012 0.106-0.036 0.143s-0.059 0.064-0.106 0.083c-0.046 0.018-0.103 0.027-0.172 0.027z"></path>
<path fill="#fff" style="fill: var(--color1, #fff)" d="M25.15 11.933h0.489l0.124-0.395h0.65l0.124 0.395h0.489l-0.635-1.88h-0.606l-0.635 1.88zM26.304 11.194l-0.21-0.666h-0.015l-0.209 0.666h0.433z"></path>
<path fill="#000" style="fill: var(--color2, #000)" d="M25.15 11.933h0.489l0.124-0.395h0.65l0.124 0.395h0.489l-0.635-1.88h-0.606l-0.635 1.88zM26.304 11.194l-0.21-0.666h-0.015l-0.209 0.666h0.433z"></path>
<path fill="#fff" style="fill: var(--color1, #fff)" d="M29.326 10.054h0.777c0.141 0 0.262 0.025 0.365 0.076s0.182 0.122 0.238 0.217c0.056 0.094 0.084 0.205 0.084 0.333 0 0.13-0.029 0.241-0.086 0.332-0.020 0.032-0.043 0.062-0.070 0.088-0.047 0.048-0.104 0.087-0.17 0.118l0.39 0.715h-0.496l-0.344-0.643h-0.233v0.643h-0.455v-1.88zM29.781 10.932h0.224c0.069 0 0.126-0.009 0.172-0.027s0.082-0.046 0.106-0.083c0.013-0.021 0.023-0.046 0.029-0.075 0.004-0.021 0.006-0.044 0.006-0.069 0-0.058-0.012-0.106-0.035-0.144s-0.059-0.067-0.106-0.086c-0.046-0.020-0.104-0.029-0.172-0.029h-0.224v0.512z"></path>
<path fill="#000" style="fill: var(--color2, #000)" d="M29.326 10.054h0.777c0.141 0 0.262 0.025 0.365 0.076s0.182 0.122 0.238 0.217c0.056 0.094 0.084 0.205 0.084 0.333 0 0.13-0.029 0.241-0.086 0.332-0.020 0.032-0.043 0.062-0.070 0.088-0.047 0.048-0.104 0.087-0.17 0.118l0.39 0.715h-0.496l-0.344-0.643h-0.233v0.643h-0.455v-1.88zM29.781 10.932h0.224c0.069 0 0.126-0.009 0.172-0.027s0.082-0.046 0.106-0.083c0.013-0.021 0.023-0.046 0.029-0.075 0.004-0.021 0.006-0.044 0.006-0.069 0-0.058-0.012-0.106-0.035-0.144s-0.059-0.067-0.106-0.086c-0.046-0.020-0.104-0.029-0.172-0.029h-0.224v0.512z"></path>
<path fill="#fff" style="fill: var(--color1, #fff)" d="M31.548 11.933h-0.489l0.635-1.88h0.606l0.635 1.88h-0.489l-0.124-0.395h-0.65l-0.124 0.395zM32.004 10.527l0.21 0.666h-0.433l0.209-0.666h0.015z"></path>
<path fill="#000" style="fill: var(--color2, #000)" d="M31.548 11.933h-0.489l0.635-1.88h0.606l0.635 1.88h-0.489l-0.124-0.395h-0.65l-0.124 0.395zM32.004 10.527l0.21 0.666h-0.433l0.209-0.666h0.015z"></path>
<path fill="#fff" style="fill: var(--color1, #fff)" d="M34.84 11.933v-1.88h-0.454v1.083h-0.016l-0.74-1.083h-0.391v1.88h0.455v-1.085h0.012l0.749 1.085h0.386z"></path>
<path fill="#000" style="fill: var(--color2, #000)" d="M34.84 11.933v-1.88h-0.454v1.083h-0.016l-0.74-1.083h-0.391v1.88h0.455v-1.085h0.012l0.749 1.085h0.386z"></path>
<path fill="#fff" style="fill: var(--color1, #fff)" d="M36.936 10.735h-0.459c-0.006-0.047-0.019-0.090-0.038-0.128s-0.044-0.070-0.075-0.097c-0.019-0.016-0.040-0.030-0.063-0.041-0.015-0.008-0.031-0.014-0.049-0.020-0.042-0.015-0.089-0.022-0.141-0.022-0.091 0-0.17 0.022-0.236 0.067-0.033 0.023-0.063 0.050-0.088 0.083s-0.046 0.069-0.064 0.111c-0.035 0.084-0.052 0.187-0.052 0.307 0 0.125 0.018 0.229 0.053 0.314s0.087 0.147 0.152 0.19c0.065 0.042 0.143 0.063 0.232 0.063 0.025 0 0.050-0.002 0.072-0.005s0.044-0.008 0.065-0.014c0.041-0.013 0.078-0.032 0.109-0.056s0.058-0.055 0.078-0.091c0.021-0.036 0.035-0.077 0.043-0.122l0.459 0.003c-0.008 0.083-0.032 0.165-0.073 0.246s-0.095 0.155-0.164 0.221c-0.070 0.066-0.155 0.119-0.256 0.158s-0.214 0.059-0.344 0.059c-0.17 0-0.323-0.037-0.457-0.112s-0.24-0.185-0.318-0.329c-0.078-0.144-0.117-0.319-0.117-0.525s0.040-0.382 0.119-0.526c0.079-0.144 0.186-0.253 0.32-0.328s0.286-0.112 0.453-0.112c0.114 0 0.219 0.016 0.316 0.048s0.182 0.077 0.255 0.138c0.074 0.060 0.133 0.134 0.179 0.221s0.075 0.188 0.085 0.3z"></path>
<path fill="#000" style="fill: var(--color2, #000)" d="M36.936 10.735h-0.459c-0.006-0.047-0.019-0.090-0.038-0.128s-0.044-0.070-0.075-0.097c-0.019-0.016-0.040-0.030-0.063-0.041-0.015-0.008-0.031-0.014-0.049-0.020-0.042-0.015-0.089-0.022-0.141-0.022-0.091 0-0.17 0.022-0.236 0.067-0.033 0.023-0.063 0.050-0.088 0.083s-0.046 0.069-0.064 0.111c-0.035 0.084-0.052 0.187-0.052 0.307 0 0.125 0.018 0.229 0.053 0.314s0.087 0.147 0.152 0.19c0.065 0.042 0.143 0.063 0.232 0.063 0.025 0 0.050-0.002 0.072-0.005s0.044-0.008 0.065-0.014c0.041-0.013 0.078-0.032 0.109-0.056s0.058-0.055 0.078-0.091c0.021-0.036 0.035-0.077 0.043-0.122l0.459 0.003c-0.008 0.083-0.032 0.165-0.073 0.246s-0.095 0.155-0.164 0.221c-0.070 0.066-0.155 0.119-0.256 0.158s-0.214 0.059-0.344 0.059c-0.17 0-0.323-0.037-0.457-0.112s-0.24-0.185-0.318-0.329c-0.078-0.144-0.117-0.319-0.117-0.525s0.040-0.382 0.119-0.526c0.079-0.144 0.186-0.253 0.32-0.328s0.286-0.112 0.453-0.112c0.114 0 0.219 0.016 0.316 0.048s0.182 0.077 0.255 0.138c0.074 0.060 0.133 0.134 0.179 0.221s0.075 0.188 0.085 0.3z"></path>
<path fill="#fff" style="fill: var(--color1, #fff)" d="M38.61 10.054h-1.312v1.88h1.312v-0.369h-0.857v-0.386h0.79v-0.37h-0.79v-0.386h0.857v-0.369z"></path>
<path fill="#000" style="fill: var(--color2, #000)" d="M38.61 10.054h-1.312v1.88h1.312v-0.369h-0.857v-0.386h0.79v-0.37h-0.79v-0.386h0.857v-0.369z"></path>
<path fill="#fff" style="fill: var(--color1, #fff)" d="M40.014 10.617c-0.006-0.067-0.033-0.12-0.082-0.157s-0.116-0.057-0.205-0.057c-0.059 0-0.108 0.008-0.147 0.023s-0.069 0.036-0.088 0.063c-0.020 0.026-0.030 0.057-0.030 0.091-0.001 0.028 0.004 0.053 0.016 0.074s0.031 0.040 0.055 0.057c0.024 0.016 0.054 0.030 0.088 0.042s0.073 0.023 0.116 0.032l0.162 0.037c0.093 0.020 0.175 0.047 0.246 0.081s0.132 0.074 0.18 0.12c0.049 0.046 0.086 0.1 0.111 0.161s0.038 0.129 0.039 0.204c-0.001 0.119-0.031 0.221-0.090 0.306s-0.145 0.15-0.256 0.195c-0.067 0.027-0.142 0.046-0.225 0.057-0.055 0.007-0.114 0.011-0.176 0.011-0.158 0-0.295-0.024-0.412-0.071s-0.208-0.119-0.273-0.215c-0.065-0.096-0.098-0.218-0.1-0.364h0.435c0.004 0.061 0.020 0.111 0.049 0.151s0.068 0.071 0.119 0.092c0.051 0.021 0.11 0.031 0.176 0.031 0.061 0 0.113-0.008 0.156-0.025s0.077-0.039 0.1-0.069c0.023-0.029 0.035-0.063 0.036-0.101-0.001-0.036-0.012-0.066-0.033-0.091s-0.054-0.048-0.099-0.066c-0.044-0.019-0.1-0.036-0.169-0.052l-0.197-0.046c-0.163-0.037-0.291-0.098-0.385-0.181s-0.14-0.197-0.14-0.34c-0.001-0.116 0.031-0.218 0.094-0.306s0.151-0.156 0.262-0.205c0.111-0.049 0.239-0.073 0.381-0.073 0.146 0 0.272 0.025 0.379 0.074s0.191 0.118 0.251 0.207c0.060 0.089 0.090 0.192 0.091 0.308h-0.435z"></path>
<path fill="#000" style="fill: var(--color2, #000)" d="M40.014 10.617c-0.006-0.067-0.033-0.12-0.082-0.157s-0.116-0.057-0.205-0.057c-0.059 0-0.108 0.008-0.147 0.023s-0.069 0.036-0.088 0.063c-0.020 0.026-0.030 0.057-0.030 0.091-0.001 0.028 0.004 0.053 0.016 0.074s0.031 0.040 0.055 0.057c0.024 0.016 0.054 0.030 0.088 0.042s0.073 0.023 0.116 0.032l0.162 0.037c0.093 0.020 0.175 0.047 0.246 0.081s0.132 0.074 0.18 0.12c0.049 0.046 0.086 0.1 0.111 0.161s0.038 0.129 0.039 0.204c-0.001 0.119-0.031 0.221-0.090 0.306s-0.145 0.15-0.256 0.195c-0.067 0.027-0.142 0.046-0.225 0.057-0.055 0.007-0.114 0.011-0.176 0.011-0.158 0-0.295-0.024-0.412-0.071s-0.208-0.119-0.273-0.215c-0.065-0.096-0.098-0.218-0.1-0.364h0.435c0.004 0.061 0.020 0.111 0.049 0.151s0.068 0.071 0.119 0.092c0.051 0.021 0.11 0.031 0.176 0.031 0.061 0 0.113-0.008 0.156-0.025s0.077-0.039 0.1-0.069c0.023-0.029 0.035-0.063 0.036-0.101-0.001-0.036-0.012-0.066-0.033-0.091s-0.054-0.048-0.099-0.066c-0.044-0.019-0.1-0.036-0.169-0.052l-0.197-0.046c-0.163-0.037-0.291-0.098-0.385-0.181s-0.14-0.197-0.14-0.34c-0.001-0.116 0.031-0.218 0.094-0.306s0.151-0.156 0.262-0.205c0.111-0.049 0.239-0.073 0.381-0.073 0.146 0 0.272 0.025 0.379 0.074s0.191 0.118 0.251 0.207c0.060 0.089 0.090 0.192 0.091 0.308h-0.435z"></path>
</symbol>
<symbol id="icon-youtube" viewBox="0 0 32 32">
<path fill="#fff" style="fill: var(--color1, #fff)" d="M14.007 18.998l5.205-2.998-5.205-2.998v5.995z"></path>
<path fill="#fff" style="fill: var(--color1, #fff)" d="M16 0c-8.835 0-16 7.165-16 16s7.165 16 16 16c8.835 0 16-7.165 16-16s-7.165-16-16-16zM25.998 16.016c0 0 0 3.245-0.412 4.809-0.231 0.857-0.906 1.532-1.762 1.762-1.565 0.412-7.823 0.412-7.823 0.412s-6.242 0-7.823-0.428c-0.856-0.23-1.532-0.906-1.762-1.762-0.412-1.548-0.412-4.809-0.412-4.809s0-3.245 0.412-4.809c0.23-0.857 0.922-1.548 1.762-1.779 1.565-0.412 7.823-0.412 7.823-0.412s6.259 0 7.823 0.428c0.856 0.23 1.532 0.906 1.762 1.762 0.428 1.565 0.412 4.826 0.412 4.826z"></path>
</symbol>
<symbol id="icon-twitter" viewBox="0 0 32 32">
<path fill="#fff" style="fill: var(--color1, #fff)" d="M16 10.286c-2.524 0-4.571 2.047-4.571 4.571s2.047 4.571 4.571 4.571c2.524 0 4.571-2.047 4.571-4.571s-2.047-4.571-4.571-4.571zM18.087 13.85c0.002 0.045 0.003 0.090 0.003 0.136 0 1.386-1.055 2.985-2.985 2.985-0.593 0-1.144-0.174-1.608-0.471 0.082 0.010 0.166 0.015 0.25 0.015 0.492 0 0.944-0.168 1.303-0.449-0.459-0.009-0.847-0.312-0.98-0.729 0.064 0.012 0.13 0.019 0.197 0.019 0.096 0 0.189-0.013 0.277-0.037-0.48-0.096-0.842-0.52-0.842-1.028 0-0.005 0-0.009 0-0.013 0.141 0.079 0.303 0.126 0.475 0.131-0.282-0.188-0.467-0.509-0.467-0.873 0-0.192 0.052-0.372 0.142-0.527 0.517 0.635 1.291 1.052 2.163 1.096-0.018-0.077-0.027-0.157-0.027-0.239 0-0.579 0.47-1.049 1.049-1.049 0.302 0 0.574 0.128 0.766 0.332 0.239-0.047 0.463-0.134 0.666-0.255-0.078 0.245-0.245 0.45-0.461 0.58 0.212-0.025 0.415-0.082 0.603-0.165-0.14 0.21-0.319 0.395-0.523 0.543z"></path>
</symbol>
<symbol id="icon-instagram" viewBox="0 0 32 32">
<path fill="#fff" style="fill: var(--color1, #fff)" d="M16.279 10.286c-2.523 0-4.569 2.047-4.569 4.571s2.046 4.571 4.569 4.571c2.523 0 4.569-2.047 4.569-4.571s-2.046-4.571-4.569-4.571zM18.887 15.939c-0.013 0.279-0.057 0.47-0.122 0.637-0.136 0.353-0.415 0.631-0.767 0.768-0.167 0.065-0.358 0.109-0.637 0.122s-0.369 0.016-1.082 0.016c-0.713 0-0.802-0.003-1.082-0.016s-0.47-0.057-0.637-0.122c-0.175-0.066-0.334-0.169-0.465-0.303-0.133-0.131-0.237-0.29-0.303-0.465-0.065-0.167-0.109-0.358-0.122-0.637s-0.016-0.369-0.016-1.082 0.003-0.802 0.016-1.082c0.013-0.279 0.057-0.47 0.122-0.637 0.066-0.175 0.169-0.334 0.303-0.465 0.131-0.134 0.29-0.237 0.465-0.303 0.167-0.065 0.358-0.109 0.637-0.122s0.369-0.016 1.082-0.016 0.802 0.003 1.082 0.016c0.279 0.013 0.47 0.057 0.637 0.122 0.175 0.066 0.334 0.169 0.465 0.303 0.133 0.131 0.237 0.29 0.303 0.465 0.065 0.167 0.109 0.358 0.122 0.637s0.016 0.369 0.016 1.082-0.003 0.802-0.016 1.082z"></path>
<path fill="#fff" style="fill: var(--color1, #fff)" d="M14.932 14.857c0-0.745 0.603-1.348 1.347-1.348s1.347 0.603 1.347 1.348c0 0.745-0.603 1.348-1.347 1.348s-1.347-0.603-1.347-1.348zM17.364 13.456c0-0.174 0.141-0.315 0.315-0.315s0.315 0.141 0.315 0.315c-0 0.174-0.141 0.315-0.315 0.315s-0.315-0.141-0.315-0.315zM16.279 15.732c0.483 0 0.875-0.392 0.875-0.875s-0.392-0.875-0.875-0.875c-0.483 0-0.875 0.392-0.875 0.875s0.392 0.875 0.875 0.875z"></path>
</symbol>
<symbol id="icon-facebook" viewBox="0 0 32 32">
<path fill="#fff" style="fill: var(--color1, #fff)" d="M17.165 19.278c-0.014 0.004-0.028 0.008-0.042 0.011 0.014-0.004 0.028-0.007 0.042-0.011z"></path>
<path fill="#fff" style="fill: var(--color1, #fff)" d="M20.567 14.857c0-2.524-2.046-4.571-4.569-4.571s-4.569 2.047-4.569 4.571c0 2.524 2.046 4.571 4.569 4.571 0.027 0 0.054-0.001 0.080-0.001v-3.559h-0.982v-1.145h0.982v-0.842c0-0.977 0.596-1.508 1.467-1.508 0.417 0 0.776 0.031 0.88 0.045v1.021h-0.601c-0.474 0-0.566 0.225-0.566 0.556v0.729h1.133l-0.148 1.145h-0.985v3.383c1.91-0.548 3.308-2.308 3.308-4.395z"></path>
</symbol>
</defs>
</svg>
