<svg width="387" height="219" viewBox="0 0 387 219" fill="none" xmlns="http://www.w3.org/2000/svg">
<g filter="url(#filter0_dd_103_849)">
<path fill-rule="evenodd" clip-rule="evenodd" d="M114.498 30L117.91 33.4102L115.896 35.424V44.1165H120.988L122.305 42.8009L124.786 45.2802L122.305 47.7595L120.988 46.4439H117.565V49.9351H137.985V55.9864H117.565V65.0634H127.503V71.1148H117.565V91.5962L114.536 96.2511L111.508 91.5962V60.4615L103.478 73.4261L96.0563 61.1341V80.2741C96.0563 84.26 97.8507 88.0349 100.941 90.5544L113.992 101.191L127.044 90.5544C130.136 88.0346 131.928 84.2621 131.928 80.2763V58.5757H137.985V80.2763C137.985 86.0811 135.373 91.5751 130.871 95.2436L113.992 109L97.1136 95.2436C92.6114 91.5749 90 86.0784 90 80.2741V49.9351H96.0563L103.543 61.8212L111.508 50.1605V46.4439H108.007L106.691 47.7595L104.209 45.2802L106.691 42.8009L108.007 44.1165H113.101V35.424L111.084 33.4102L114.498 30ZM114.071 46.4439H115.002V91.1308L114.536 92.0617L114.071 91.1308V46.4439Z" fill="white"/>
<path fill-rule="evenodd" clip-rule="evenodd" d="M114.498 30L117.91 33.4102L115.896 35.424V44.1165H120.988L122.305 42.8009L124.786 45.2802L122.305 47.7595L120.988 46.4439H117.565V49.9351H137.985V55.9864H117.565V65.0634H127.503V71.1148H117.565V91.5962L114.536 96.2511L111.508 91.5962V60.4615L103.478 73.4261L96.0563 61.1341V80.2741C96.0563 84.26 97.8507 88.0349 100.941 90.5544L113.992 101.191L127.044 90.5544C130.136 88.0346 131.928 84.2621 131.928 80.2763V58.5757H137.985V80.2763C137.985 86.0811 135.373 91.5751 130.871 95.2436L113.992 109L97.1136 95.2436C92.6114 91.5749 90 86.0784 90 80.2741V49.9351H96.0563L103.543 61.8212L111.508 50.1605V46.4439H108.007L106.691 47.7595L104.209 45.2802L106.691 42.8009L108.007 44.1165H113.101V35.424L111.084 33.4102L114.498 30ZM114.071 46.4439H115.002V91.1308L114.536 92.0617L114.071 91.1308V46.4439Z" fill="url(#paint0_linear_103_849)"/>
<path d="M178.967 54.0421C178.925 53.5815 178.739 53.2234 178.408 52.968C178.081 52.7083 177.613 52.5785 177.005 52.5785C176.603 52.5785 176.268 52.6308 176.001 52.7356C175.731 52.8402 175.531 52.9847 175.396 53.1689C175.324 53.2675 175.269 53.3741 175.234 53.4889C175.205 53.584 175.191 53.6846 175.189 53.7908C175.18 53.9834 175.218 54.153 175.302 54.2996C175.391 54.4462 175.516 54.576 175.678 54.689C175.848 54.7979 176.048 54.8943 176.283 54.978C176.517 55.0617 176.781 55.135 177.074 55.1979L178.181 55.4491C178.57 55.5335 178.93 55.635 179.263 55.7537C179.476 55.8295 179.677 55.9122 179.866 56.0019C180.357 56.2322 180.767 56.5065 181.098 56.8248C181.435 57.143 181.687 57.5094 181.859 57.924C182.031 58.3386 182.119 58.8034 182.122 59.3185C182.119 60.1309 181.913 60.8281 181.507 61.4102C181.283 61.731 181.005 62.0105 180.672 62.2486C180.401 62.4426 180.095 62.6091 179.753 62.7481C178.994 63.0581 178.079 63.213 177.005 63.213C175.928 63.213 174.991 63.0518 174.19 62.7293C173.389 62.4069 172.767 61.9169 172.323 61.2595C171.879 60.602 171.649 59.7708 171.637 58.7657H174.618C174.641 59.1803 174.752 59.5258 174.951 59.8021C175.147 60.0785 175.418 60.2879 175.76 60.4303C176.11 60.5727 176.512 60.6439 176.969 60.6439C177.387 60.6439 177.744 60.5874 178.037 60.4743C178.334 60.3612 178.563 60.2042 178.721 60.0032C178.881 59.8021 178.963 59.5718 178.967 59.3122C178.963 59.0693 178.887 58.862 178.741 58.6904C178.656 58.5887 178.545 58.4954 178.406 58.4105C178.306 58.3486 178.192 58.2911 178.062 58.2381C177.95 58.1899 177.826 58.1432 177.691 58.0979C177.462 58.0212 177.2 57.9485 176.905 57.88L175.56 57.566C174.445 57.3105 173.567 56.8981 172.925 56.3285C172.285 55.7548 171.966 54.9801 171.97 54.0044C171.966 53.2087 172.179 52.5115 172.612 51.9127C173.043 51.3139 173.64 50.8469 174.403 50.5119C175.165 50.1769 176.035 50.0094 177.012 50.0094C178.01 50.0094 178.876 50.179 179.609 50.5182C180.346 50.8532 180.918 51.3243 181.325 51.9315C181.731 52.5387 181.939 53.2422 181.948 54.0421H178.967Z" fill="white"/>
<path d="M178.967 54.0421C178.925 53.5815 178.739 53.2234 178.408 52.968C178.081 52.7083 177.613 52.5785 177.005 52.5785C176.603 52.5785 176.268 52.6308 176.001 52.7356C175.731 52.8402 175.531 52.9847 175.396 53.1689C175.324 53.2675 175.269 53.3741 175.234 53.4889C175.205 53.584 175.191 53.6846 175.189 53.7908C175.18 53.9834 175.218 54.153 175.302 54.2996C175.391 54.4462 175.516 54.576 175.678 54.689C175.848 54.7979 176.048 54.8943 176.283 54.978C176.517 55.0617 176.781 55.135 177.074 55.1979L178.181 55.4491C178.57 55.5335 178.93 55.635 179.263 55.7537C179.476 55.8295 179.677 55.9122 179.866 56.0019C180.357 56.2322 180.767 56.5065 181.098 56.8248C181.435 57.143 181.687 57.5094 181.859 57.924C182.031 58.3386 182.119 58.8034 182.122 59.3185C182.119 60.1309 181.913 60.8281 181.507 61.4102C181.283 61.731 181.005 62.0105 180.672 62.2486C180.401 62.4426 180.095 62.6091 179.753 62.7481C178.994 63.0581 178.079 63.213 177.005 63.213C175.928 63.213 174.991 63.0518 174.19 62.7293C173.389 62.4069 172.767 61.9169 172.323 61.2595C171.879 60.602 171.649 59.7708 171.637 58.7657H174.618C174.641 59.1803 174.752 59.5258 174.951 59.8021C175.147 60.0785 175.418 60.2879 175.76 60.4303C176.11 60.5727 176.512 60.6439 176.969 60.6439C177.387 60.6439 177.744 60.5874 178.037 60.4743C178.334 60.3612 178.563 60.2042 178.721 60.0032C178.881 59.8021 178.963 59.5718 178.967 59.3122C178.963 59.0693 178.887 58.862 178.741 58.6904C178.656 58.5887 178.545 58.4954 178.406 58.4105C178.306 58.3486 178.192 58.2911 178.062 58.2381C177.95 58.1899 177.826 58.1432 177.691 58.0979C177.462 58.0212 177.2 57.9485 176.905 57.88L175.56 57.566C174.445 57.3105 173.567 56.8981 172.925 56.3285C172.285 55.7548 171.966 54.9801 171.97 54.0044C171.966 53.2087 172.179 52.5115 172.612 51.9127C173.043 51.3139 173.64 50.8469 174.403 50.5119C175.165 50.1769 176.035 50.0094 177.012 50.0094C178.01 50.0094 178.876 50.179 179.609 50.5182C180.346 50.8532 180.918 51.3243 181.325 51.9315C181.731 52.5387 181.939 53.2422 181.948 54.0421H178.967Z" fill="url(#paint1_linear_103_849)"/>
<path d="M153.062 50.1853H149.208V63.0496H152.237V55.1036H152.345L155.437 62.968H157.373L160.467 55.1476H160.574V63.0496H163.604V50.1853H159.75L156.481 58.1501H156.33L153.062 50.1853Z" fill="white"/>
<path d="M153.062 50.1853H149.208V63.0496H152.237V55.1036H152.345L155.437 62.968H157.373L160.467 55.1476H160.574V63.0496H163.604V50.1853H159.75L156.481 58.1501H156.33L153.062 50.1853Z" fill="url(#paint2_linear_103_849)"/>
<path d="M169.355 63.0496V50.1853H166.243V63.0496H169.355Z" fill="white"/>
<path d="M169.355 63.0496V50.1853H166.243V63.0496H169.355Z" fill="url(#paint3_linear_103_849)"/>
<path d="M191.172 53.4105C191.271 53.5937 191.331 53.8042 191.352 54.0421H194.333C194.324 53.2422 194.117 52.5387 193.711 51.9315C193.303 51.3243 192.732 50.8532 191.995 50.5182C191.261 50.179 190.395 50.0094 189.398 50.0094C188.421 50.0094 187.551 50.1769 186.788 50.5119C186.026 50.8469 185.429 51.3139 184.998 51.9127C184.565 52.5115 184.352 53.2087 184.355 54.0044C184.352 54.9801 184.67 55.7548 185.311 56.3285C185.953 56.8981 186.83 57.3105 187.946 57.566L189.291 57.88C189.76 57.9889 190.146 58.1083 190.448 58.2381C190.754 58.3637 190.979 58.5145 191.127 58.6904C191.272 58.862 191.349 59.0693 191.352 59.3122C191.349 59.5718 191.267 59.8021 191.107 60.0032C190.948 60.2042 190.719 60.3612 190.423 60.4743C190.242 60.5436 190.039 60.5916 189.813 60.6185C189.669 60.6354 189.516 60.6439 189.354 60.6439C188.898 60.6439 188.495 60.5727 188.146 60.4303C187.804 60.2879 187.533 60.0785 187.336 59.8021C187.138 59.5258 187.027 59.1803 187.003 58.7657H184.022C184.035 59.7708 184.264 60.602 184.708 61.2595C185.152 61.9169 185.775 62.4069 186.575 62.7293C187.376 63.0518 188.313 63.213 189.391 63.213C190.464 63.213 191.38 63.0581 192.139 62.7481C192.901 62.4383 193.485 61.9923 193.893 61.4102C194.299 60.8281 194.504 60.1309 194.508 59.3185C194.506 58.9981 194.472 58.6971 194.404 58.4156C194.362 58.2445 194.31 58.0807 194.244 57.924C194.073 57.5094 193.82 57.143 193.483 56.8248C193.152 56.5065 192.743 56.2322 192.251 56.0019C191.766 55.7716 191.203 55.5873 190.566 55.4491L189.46 55.1979C189.167 55.135 188.903 55.0617 188.668 54.978C188.434 54.8943 188.233 54.7979 188.064 54.689C187.955 54.6133 187.864 54.5301 187.787 54.4393C187.749 54.3945 187.716 54.348 187.687 54.2996C187.604 54.153 187.565 53.9834 187.575 53.7908C187.578 53.5563 187.647 53.349 187.782 53.1689C187.917 52.9847 188.117 52.8402 188.386 52.7356C188.654 52.6308 188.989 52.5785 189.391 52.5785C189.999 52.5785 190.466 52.7083 190.794 52.968C190.954 53.0915 191.08 53.239 191.172 53.4105Z" fill="white"/>
<path d="M191.172 53.4105C191.271 53.5937 191.331 53.8042 191.352 54.0421H194.333C194.324 53.2422 194.117 52.5387 193.711 51.9315C193.303 51.3243 192.732 50.8532 191.995 50.5182C191.261 50.179 190.395 50.0094 189.398 50.0094C188.421 50.0094 187.551 50.1769 186.788 50.5119C186.026 50.8469 185.429 51.3139 184.998 51.9127C184.565 52.5115 184.352 53.2087 184.355 54.0044C184.352 54.9801 184.67 55.7548 185.311 56.3285C185.953 56.8981 186.83 57.3105 187.946 57.566L189.291 57.88C189.76 57.9889 190.146 58.1083 190.448 58.2381C190.754 58.3637 190.979 58.5145 191.127 58.6904C191.272 58.862 191.349 59.0693 191.352 59.3122C191.349 59.5718 191.267 59.8021 191.107 60.0032C190.948 60.2042 190.719 60.3612 190.423 60.4743C190.242 60.5436 190.039 60.5916 189.813 60.6185C189.669 60.6354 189.516 60.6439 189.354 60.6439C188.898 60.6439 188.495 60.5727 188.146 60.4303C187.804 60.2879 187.533 60.0785 187.336 59.8021C187.138 59.5258 187.027 59.1803 187.003 58.7657H184.022C184.035 59.7708 184.264 60.602 184.708 61.2595C185.152 61.9169 185.775 62.4069 186.575 62.7293C187.376 63.0518 188.313 63.213 189.391 63.213C190.464 63.213 191.38 63.0581 192.139 62.7481C192.901 62.4383 193.485 61.9923 193.893 61.4102C194.299 60.8281 194.504 60.1309 194.508 59.3185C194.506 58.9981 194.472 58.6971 194.404 58.4156C194.362 58.2445 194.31 58.0807 194.244 57.924C194.073 57.5094 193.82 57.143 193.483 56.8248C193.152 56.5065 192.743 56.2322 192.251 56.0019C191.766 55.7716 191.203 55.5873 190.566 55.4491L189.46 55.1979C189.167 55.135 188.903 55.0617 188.668 54.978C188.434 54.8943 188.233 54.7979 188.064 54.689C187.955 54.6133 187.864 54.5301 187.787 54.4393C187.749 54.3945 187.716 54.348 187.687 54.2996C187.604 54.153 187.565 53.9834 187.575 53.7908C187.578 53.5563 187.647 53.349 187.782 53.1689C187.917 52.9847 188.117 52.8402 188.386 52.7356C188.654 52.6308 188.989 52.5785 189.391 52.5785C189.999 52.5785 190.466 52.7083 190.794 52.968C190.954 53.0915 191.08 53.239 191.172 53.4105Z" fill="url(#paint4_linear_103_849)"/>
<path d="M199.891 50.1853V63.0496H196.779V50.1853H199.891Z" fill="white"/>
<path d="M199.891 50.1853V63.0496H196.779V50.1853H199.891Z" fill="url(#paint5_linear_103_849)"/>
<path fill-rule="evenodd" clip-rule="evenodd" d="M213.878 60.2167C214.422 59.2327 214.695 58.0329 214.695 56.6175C214.695 55.202 214.422 54.0023 213.878 53.0182C213.334 52.0341 212.595 51.2866 211.665 50.7758C210.739 50.2649 209.7 50.0094 208.548 50.0094C207.39 50.0094 206.35 50.2649 205.423 50.7758C204.497 51.2866 203.762 52.0341 203.216 53.0182C202.675 54.0023 202.406 55.202 202.406 56.6175C202.406 58.0287 202.675 59.2264 203.216 60.2105C203.762 61.1904 204.497 61.9379 205.423 62.453C206.35 62.968 207.39 63.2256 208.548 63.2256C209.7 63.2256 210.739 62.9701 211.665 62.4592C212.595 61.9483 213.334 61.2008 213.878 60.2167ZM211.156 54.4943C211.396 55.0723 211.514 55.7799 211.514 56.6175C211.514 57.455 211.396 58.1627 211.156 58.7406C210.921 59.3185 210.582 59.7561 210.138 60.0534C209.698 60.3508 209.167 60.4994 208.548 60.4994C207.931 60.4994 207.401 60.3508 206.957 60.0534C206.511 59.7561 206.171 59.3185 205.933 58.7406C205.698 58.1627 205.58 57.455 205.58 56.6175C205.58 55.7799 205.698 55.0723 205.933 54.4943C206.171 53.9164 206.511 53.4788 206.957 53.1815C207.401 52.8842 207.931 52.7356 208.548 52.7356C209.167 52.7356 209.698 52.8842 210.138 53.1815C210.344 53.3192 210.528 53.4871 210.688 53.685C210.874 53.9143 211.03 54.1841 211.156 54.4943Z" fill="white"/>
<path fill-rule="evenodd" clip-rule="evenodd" d="M213.878 60.2167C214.422 59.2327 214.695 58.0329 214.695 56.6175C214.695 55.202 214.422 54.0023 213.878 53.0182C213.334 52.0341 212.595 51.2866 211.665 50.7758C210.739 50.2649 209.7 50.0094 208.548 50.0094C207.39 50.0094 206.35 50.2649 205.423 50.7758C204.497 51.2866 203.762 52.0341 203.216 53.0182C202.675 54.0023 202.406 55.202 202.406 56.6175C202.406 58.0287 202.675 59.2264 203.216 60.2105C203.762 61.1904 204.497 61.9379 205.423 62.453C206.35 62.968 207.39 63.2256 208.548 63.2256C209.7 63.2256 210.739 62.9701 211.665 62.4592C212.595 61.9483 213.334 61.2008 213.878 60.2167ZM211.156 54.4943C211.396 55.0723 211.514 55.7799 211.514 56.6175C211.514 57.455 211.396 58.1627 211.156 58.7406C210.921 59.3185 210.582 59.7561 210.138 60.0534C209.698 60.3508 209.167 60.4994 208.548 60.4994C207.931 60.4994 207.401 60.3508 206.957 60.0534C206.511 59.7561 206.171 59.3185 205.933 58.7406C205.698 58.1627 205.58 57.455 205.58 56.6175C205.58 55.7799 205.698 55.0723 205.933 54.4943C206.171 53.9164 206.511 53.4788 206.957 53.1815C207.401 52.8842 207.931 52.7356 208.548 52.7356C209.167 52.7356 209.698 52.8842 210.138 53.1815C210.344 53.3192 210.528 53.4871 210.688 53.685C210.874 53.9143 211.03 54.1841 211.156 54.4943Z" fill="url(#paint6_linear_103_849)"/>
<path d="M228.169 63.0496H225.529L220.404 55.625H220.324V63.0496H217.212V50.1853H219.889L224.957 57.5974H225.063V50.1853H228.169V63.0496Z" fill="white"/>
<path d="M228.169 63.0496H225.529L220.404 55.625H220.324V63.0496H217.212V50.1853H219.889L224.957 57.5974H225.063V50.1853H228.169V63.0496Z" fill="url(#paint7_linear_103_849)"/>
<path d="M194.883 73.0071C194.812 72.7432 194.706 72.5108 194.568 72.3099C194.43 72.1046 194.261 71.9309 194.059 71.7885C193.858 71.6461 193.627 71.5393 193.367 71.4682C193.109 71.3927 192.823 71.3551 192.514 71.3551C191.888 71.3551 191.347 71.5058 190.89 71.8073C190.439 72.1088 190.088 72.5485 189.84 73.1265C189.593 73.7001 189.471 74.3974 189.471 75.2181C189.471 76.0431 189.589 76.7467 189.827 77.3287C190.068 77.9108 190.413 78.3547 190.865 78.6604C191.318 78.9661 191.867 79.1189 192.514 79.1189C193.083 79.1189 193.565 79.0268 193.958 78.8425C194.168 78.7433 194.352 78.6225 194.508 78.4802C194.648 78.3524 194.768 78.2073 194.865 78.0448C194.987 77.8403 195.072 77.6142 195.121 77.3665C195.15 77.2191 195.167 77.0642 195.17 76.9016H192.619V74.6339H198.171V76.3362C198.171 77.4878 197.926 78.4741 197.434 79.2948C196.948 80.1156 196.279 80.7458 195.423 81.1855C194.572 81.6252 193.594 81.8451 192.488 81.8451C191.26 81.8451 190.181 81.5792 189.251 81.0473C188.319 80.5155 187.595 79.7576 187.074 78.7734C186.555 77.7851 186.295 76.6126 186.295 75.2558C186.295 74.2006 186.452 73.2646 186.767 72.4481C187.081 71.6273 187.518 70.9321 188.08 70.3626C188.646 69.7931 189.3 69.3618 190.042 69.0686C190.788 68.7755 191.591 68.6289 192.45 68.6289C193.196 68.6289 193.889 68.7357 194.53 68.9493C195.176 69.1628 195.745 69.4644 196.24 69.8538C196.739 70.2432 197.143 70.706 197.454 71.242C197.764 71.778 197.957 72.3664 198.033 73.0071H194.883Z" fill="white"/>
<path d="M194.883 73.0071C194.812 72.7432 194.706 72.5108 194.568 72.3099C194.43 72.1046 194.261 71.9309 194.059 71.7885C193.858 71.6461 193.627 71.5393 193.367 71.4682C193.109 71.3927 192.823 71.3551 192.514 71.3551C191.888 71.3551 191.347 71.5058 190.89 71.8073C190.439 72.1088 190.088 72.5485 189.84 73.1265C189.593 73.7001 189.471 74.3974 189.471 75.2181C189.471 76.0431 189.589 76.7467 189.827 77.3287C190.068 77.9108 190.413 78.3547 190.865 78.6604C191.318 78.9661 191.867 79.1189 192.514 79.1189C193.083 79.1189 193.565 79.0268 193.958 78.8425C194.168 78.7433 194.352 78.6225 194.508 78.4802C194.648 78.3524 194.768 78.2073 194.865 78.0448C194.987 77.8403 195.072 77.6142 195.121 77.3665C195.15 77.2191 195.167 77.0642 195.17 76.9016H192.619V74.6339H198.171V76.3362C198.171 77.4878 197.926 78.4741 197.434 79.2948C196.948 80.1156 196.279 80.7458 195.423 81.1855C194.572 81.6252 193.594 81.8451 192.488 81.8451C191.26 81.8451 190.181 81.5792 189.251 81.0473C188.319 80.5155 187.595 79.7576 187.074 78.7734C186.555 77.7851 186.295 76.6126 186.295 75.2558C186.295 74.2006 186.452 73.2646 186.767 72.4481C187.081 71.6273 187.518 70.9321 188.08 70.3626C188.646 69.7931 189.3 69.3618 190.042 69.0686C190.788 68.7755 191.591 68.6289 192.45 68.6289C193.196 68.6289 193.889 68.7357 194.53 68.9493C195.176 69.1628 195.745 69.4644 196.24 69.8538C196.739 70.2432 197.143 70.706 197.454 71.242C197.764 71.778 197.957 72.3664 198.033 73.0071H194.883Z" fill="url(#paint8_linear_103_849)"/>
<path d="M149.208 81.6692V68.8048H157.995V71.33H152.319V73.9682H157.437V76.4995H152.319V81.6692H149.208Z" fill="white"/>
<path d="M149.208 81.6692V68.8048H157.995V71.33H152.319V73.9682H157.437V76.4995H152.319V81.6692H149.208Z" fill="url(#paint9_linear_103_849)"/>
<path fill-rule="evenodd" clip-rule="evenodd" d="M160.263 81.6692V68.8048H165.58C166.545 68.8048 167.376 68.9786 168.077 69.3262C168.78 69.6696 169.324 70.1637 169.704 70.8086C170.086 71.4493 170.277 72.2093 170.277 73.0887C170.277 73.9807 170.083 74.7387 169.691 75.3626C169.305 75.9779 168.758 76.4487 168.048 76.7751L170.716 81.6692H167.322L164.967 77.2659H163.375V81.6692H160.263ZM164.907 74.8161H163.375V71.3111H164.907C165.373 71.3111 165.764 71.3781 166.083 71.5121C166.234 71.5738 166.368 71.6507 166.485 71.7428C166.614 71.8443 166.721 71.9642 166.807 72.1026C166.936 72.3084 167.014 72.5578 167.04 72.8506C167.047 72.927 167.051 73.0064 167.051 73.0887C167.051 73.4865 166.971 73.8132 166.807 74.0686C166.643 74.3199 166.401 74.5084 166.083 74.6339C165.77 74.7554 165.377 74.8161 164.907 74.8161Z" fill="white"/>
<path fill-rule="evenodd" clip-rule="evenodd" d="M160.263 81.6692V68.8048H165.58C166.545 68.8048 167.376 68.9786 168.077 69.3262C168.78 69.6696 169.324 70.1637 169.704 70.8086C170.086 71.4493 170.277 72.2093 170.277 73.0887C170.277 73.9807 170.083 74.7387 169.691 75.3626C169.305 75.9779 168.758 76.4487 168.048 76.7751L170.716 81.6692H167.322L164.967 77.2659H163.375V81.6692H160.263ZM164.907 74.8161H163.375V71.3111H164.907C165.373 71.3111 165.764 71.3781 166.083 71.5121C166.234 71.5738 166.368 71.6507 166.485 71.7428C166.614 71.8443 166.721 71.9642 166.807 72.1026C166.936 72.3084 167.014 72.5578 167.04 72.8506C167.047 72.927 167.051 73.0064 167.051 73.0887C167.051 73.4865 166.971 73.8132 166.807 74.0686C166.643 74.3199 166.401 74.5084 166.083 74.6339C165.77 74.7554 165.377 74.8161 164.907 74.8161Z" fill="url(#paint10_linear_103_849)"/>
<path fill-rule="evenodd" clip-rule="evenodd" d="M172.123 81.6692H175.467L176.314 78.9682H180.761L181.609 81.6692H184.954L180.61 68.8048H176.466L172.123 81.6692ZM180.019 76.6064L178.585 72.046H178.485L177.054 76.6064H180.019Z" fill="white"/>
<path fill-rule="evenodd" clip-rule="evenodd" d="M172.123 81.6692H175.467L176.314 78.9682H180.761L181.609 81.6692H184.954L180.61 68.8048H176.466L172.123 81.6692ZM180.019 76.6064L178.585 72.046H178.485L177.054 76.6064H180.019Z" fill="url(#paint11_linear_103_849)"/>
<path fill-rule="evenodd" clip-rule="evenodd" d="M200.703 68.8048V81.6692H203.815V77.2659H205.409L207.764 81.6692H211.157L208.49 76.7751C208.945 76.5656 209.334 76.2965 209.656 75.968C209.836 75.7847 209.995 75.5829 210.133 75.3626C210.522 74.7387 210.719 73.9807 210.719 73.0887C210.719 72.2093 210.528 71.4493 210.146 70.8086C209.765 70.1637 209.221 69.6696 208.517 69.3262C207.818 68.9786 206.986 68.8048 206.022 68.8048H200.703ZM203.815 74.8161H205.349C205.818 74.8161 206.211 74.7554 206.524 74.6339C206.843 74.5084 207.085 74.3199 207.249 74.0686C207.341 73.9219 207.409 73.7517 207.449 73.558C207.478 73.4144 207.492 73.258 207.492 73.0887C207.492 72.6909 207.41 72.3622 207.249 72.1026C207.085 71.8387 206.843 71.6419 206.524 71.5121C206.206 71.3781 205.815 71.3111 205.349 71.3111H203.815V74.8161Z" fill="white"/>
<path fill-rule="evenodd" clip-rule="evenodd" d="M200.703 68.8048V81.6692H203.815V77.2659H205.409L207.764 81.6692H211.157L208.49 76.7751C208.945 76.5656 209.334 76.2965 209.656 75.968C209.836 75.7847 209.995 75.5829 210.133 75.3626C210.522 74.7387 210.719 73.9807 210.719 73.0887C210.719 72.2093 210.528 71.4493 210.146 70.8086C209.765 70.1637 209.221 69.6696 208.517 69.3262C207.818 68.9786 206.986 68.8048 206.022 68.8048H200.703ZM203.815 74.8161H205.349C205.818 74.8161 206.211 74.7554 206.524 74.6339C206.843 74.5084 207.085 74.3199 207.249 74.0686C207.341 73.9219 207.409 73.7517 207.449 73.558C207.478 73.4144 207.492 73.258 207.492 73.0887C207.492 72.6909 207.41 72.3622 207.249 72.1026C207.085 71.8387 206.843 71.6419 206.524 71.5121C206.206 71.3781 205.815 71.3111 205.349 71.3111H203.815V74.8161Z" fill="url(#paint12_linear_103_849)"/>
<path fill-rule="evenodd" clip-rule="evenodd" d="M215.909 81.6692H212.564L216.908 68.8048H221.052L225.396 81.6692H222.051L221.203 78.9682H216.755L215.909 81.6692ZM219.026 72.046L220.46 76.6064H217.496L218.926 72.046H219.026Z" fill="white"/>
<path fill-rule="evenodd" clip-rule="evenodd" d="M215.909 81.6692H212.564L216.908 68.8048H221.052L225.396 81.6692H222.051L221.203 78.9682H216.755L215.909 81.6692ZM219.026 72.046L220.46 76.6064H217.496L218.926 72.046H219.026Z" fill="url(#paint13_linear_103_849)"/>
<path d="M238.438 81.6692V68.8048H235.332V76.2169H235.224L230.158 68.8048H227.479V81.6692H230.591V74.2445H230.673L235.798 81.6692H238.438Z" fill="white"/>
<path d="M238.438 81.6692V68.8048H235.332V76.2169H235.224L230.158 68.8048H227.479V81.6692H230.591V74.2445H230.673L235.798 81.6692H238.438Z" fill="url(#paint14_linear_103_849)"/>
<path d="M252.78 73.4656H249.637C249.595 73.1432 249.508 72.8521 249.379 72.5925C249.25 72.3329 249.077 72.1109 248.864 71.9267C248.735 71.8164 248.593 71.7219 248.436 71.6431C248.333 71.5902 248.222 71.5445 248.103 71.5058C247.814 71.4053 247.494 71.3551 247.141 71.3551C246.516 71.3551 245.978 71.5079 245.525 71.8136C245.297 71.9684 245.097 72.158 244.922 72.3825C244.753 72.6015 244.607 72.8536 244.487 73.139C244.249 73.7169 244.131 74.4162 244.131 75.237C244.131 76.0913 244.251 76.8073 244.495 77.3852C244.742 77.959 245.088 78.3923 245.532 78.6855C245.98 78.9744 246.511 79.1189 247.122 79.1189C247.295 79.1189 247.461 79.1077 247.617 79.0854C247.772 79.0634 247.919 79.0306 248.06 78.987C248.343 78.8991 248.593 78.7713 248.808 78.6038C249.024 78.4322 249.202 78.2249 249.341 77.982C249.484 77.7349 249.583 77.4564 249.637 77.1466L252.78 77.1654C252.726 77.7349 252.56 78.296 252.283 78.8488C252.01 79.4016 251.635 79.9062 251.159 80.3627C250.68 80.8149 250.098 81.175 249.41 81.4431C248.727 81.711 247.943 81.8451 247.059 81.8451C245.894 81.8451 244.851 81.5896 243.929 81.0787C243.011 80.5636 242.285 79.8141 241.754 78.83C241.221 77.8459 240.955 76.6482 240.955 75.237C240.955 73.8216 241.226 72.6218 241.767 71.6377C242.307 70.6536 243.039 69.9062 243.96 69.3953C244.882 68.8844 245.916 68.6289 247.059 68.6289C247.839 68.6289 248.56 68.7378 249.222 68.9555C249.885 69.1691 250.467 69.4832 250.969 69.8978C251.472 70.3081 251.881 70.8128 252.196 71.4116C252.509 72.0104 252.706 72.6951 252.78 73.4656Z" fill="white"/>
<path d="M252.78 73.4656H249.637C249.595 73.1432 249.508 72.8521 249.379 72.5925C249.25 72.3329 249.077 72.1109 248.864 71.9267C248.735 71.8164 248.593 71.7219 248.436 71.6431C248.333 71.5902 248.222 71.5445 248.103 71.5058C247.814 71.4053 247.494 71.3551 247.141 71.3551C246.516 71.3551 245.978 71.5079 245.525 71.8136C245.297 71.9684 245.097 72.158 244.922 72.3825C244.753 72.6015 244.607 72.8536 244.487 73.139C244.249 73.7169 244.131 74.4162 244.131 75.237C244.131 76.0913 244.251 76.8073 244.495 77.3852C244.742 77.959 245.088 78.3923 245.532 78.6855C245.98 78.9744 246.511 79.1189 247.122 79.1189C247.295 79.1189 247.461 79.1077 247.617 79.0854C247.772 79.0634 247.919 79.0306 248.06 78.987C248.343 78.8991 248.593 78.7713 248.808 78.6038C249.024 78.4322 249.202 78.2249 249.341 77.982C249.484 77.7349 249.583 77.4564 249.637 77.1466L252.78 77.1654C252.726 77.7349 252.56 78.296 252.283 78.8488C252.01 79.4016 251.635 79.9062 251.159 80.3627C250.68 80.8149 250.098 81.175 249.41 81.4431C248.727 81.711 247.943 81.8451 247.059 81.8451C245.894 81.8451 244.851 81.5896 243.929 81.0787C243.011 80.5636 242.285 79.8141 241.754 78.83C241.221 77.8459 240.955 76.6482 240.955 75.237C240.955 73.8216 241.226 72.6218 241.767 71.6377C242.307 70.6536 243.039 69.9062 243.96 69.3953C244.882 68.8844 245.916 68.6289 247.059 68.6289C247.839 68.6289 248.56 68.7378 249.222 68.9555C249.885 69.1691 250.467 69.4832 250.969 69.8978C251.472 70.3081 251.881 70.8128 252.196 71.4116C252.509 72.0104 252.706 72.6951 252.78 73.4656Z" fill="url(#paint15_linear_103_849)"/>
<path d="M264.238 68.8048H255.261V81.6692H264.238V79.144H258.372V76.4995H263.777V73.9682H258.372V71.33H264.238V68.8048Z" fill="white"/>
<path d="M264.238 68.8048H255.261V81.6692H264.238V79.144H258.372V76.4995H263.777V73.9682H258.372V71.33H264.238V68.8048Z" fill="url(#paint16_linear_103_849)"/>
<path d="M273.844 72.6616C273.803 72.201 273.615 71.8429 273.284 71.5875C272.958 71.3279 272.491 71.198 271.883 71.198C271.481 71.198 271.146 71.2504 270.876 71.3551C270.609 71.4597 270.407 71.6042 270.274 71.7885C270.139 71.9685 270.07 72.1758 270.067 72.4103C270.057 72.603 270.096 72.7726 270.179 72.9192C270.267 73.0657 270.392 73.1955 270.556 73.3086C270.723 73.4174 270.925 73.5138 271.16 73.5975C271.395 73.6813 271.659 73.7546 271.952 73.8174L273.058 74.0686C273.695 74.2068 274.258 74.3911 274.743 74.6214C275.233 74.8517 275.644 75.126 275.975 75.4443C276.31 75.7626 276.563 76.1289 276.736 76.5435C276.907 76.9581 276.996 77.423 277 77.938C276.996 78.7504 276.791 79.4476 276.383 80.0297C275.977 80.6118 275.393 81.0578 274.631 81.3677C274.174 81.5543 273.661 81.6847 273.089 81.7589C272.711 81.808 272.309 81.8325 271.883 81.8325C270.805 81.8325 269.866 81.6713 269.066 81.3489C268.265 81.0264 267.643 80.5364 267.199 79.879C266.754 79.2215 266.527 78.3903 266.514 77.3852H269.493C269.519 77.7998 269.63 78.1453 269.826 78.4217C270.023 78.698 270.294 78.9074 270.638 79.0498C270.986 79.1922 271.388 79.2634 271.844 79.2634C272.263 79.2634 272.62 79.2069 272.913 79.0938C273.211 78.9807 273.439 78.8237 273.599 78.6227C273.757 78.4217 273.839 78.1914 273.844 77.9317C273.839 77.6888 273.764 77.4815 273.617 77.3099C273.471 77.134 273.244 76.9832 272.938 76.8576C272.636 76.7278 272.252 76.6085 271.783 76.4995L270.436 76.1855C269.322 75.9301 268.443 75.5176 267.803 74.9481C267.162 74.3743 266.842 73.5996 266.847 72.6239C266.842 71.8282 267.057 71.131 267.488 70.5322C267.919 69.9334 268.518 69.4664 269.28 69.1315C270.043 68.7964 270.913 68.6289 271.888 68.6289C272.885 68.6289 273.752 68.7985 274.485 69.1377C275.222 69.4727 275.795 69.9438 276.201 70.551C276.609 71.1582 276.816 71.8618 276.823 72.6616H273.844Z" fill="white"/>
<path d="M273.844 72.6616C273.803 72.201 273.615 71.8429 273.284 71.5875C272.958 71.3279 272.491 71.198 271.883 71.198C271.481 71.198 271.146 71.2504 270.876 71.3551C270.609 71.4597 270.407 71.6042 270.274 71.7885C270.139 71.9685 270.07 72.1758 270.067 72.4103C270.057 72.603 270.096 72.7726 270.179 72.9192C270.267 73.0657 270.392 73.1955 270.556 73.3086C270.723 73.4174 270.925 73.5138 271.16 73.5975C271.395 73.6813 271.659 73.7546 271.952 73.8174L273.058 74.0686C273.695 74.2068 274.258 74.3911 274.743 74.6214C275.233 74.8517 275.644 75.126 275.975 75.4443C276.31 75.7626 276.563 76.1289 276.736 76.5435C276.907 76.9581 276.996 77.423 277 77.938C276.996 78.7504 276.791 79.4476 276.383 80.0297C275.977 80.6118 275.393 81.0578 274.631 81.3677C274.174 81.5543 273.661 81.6847 273.089 81.7589C272.711 81.808 272.309 81.8325 271.883 81.8325C270.805 81.8325 269.866 81.6713 269.066 81.3489C268.265 81.0264 267.643 80.5364 267.199 79.879C266.754 79.2215 266.527 78.3903 266.514 77.3852H269.493C269.519 77.7998 269.63 78.1453 269.826 78.4217C270.023 78.698 270.294 78.9074 270.638 79.0498C270.986 79.1922 271.388 79.2634 271.844 79.2634C272.263 79.2634 272.62 79.2069 272.913 79.0938C273.211 78.9807 273.439 78.8237 273.599 78.6227C273.757 78.4217 273.839 78.1914 273.844 77.9317C273.839 77.6888 273.764 77.4815 273.617 77.3099C273.471 77.134 273.244 76.9832 272.938 76.8576C272.636 76.7278 272.252 76.6085 271.783 76.4995L270.436 76.1855C269.322 75.9301 268.443 75.5176 267.803 74.9481C267.162 74.3743 266.842 73.5996 266.847 72.6239C266.842 71.8282 267.057 71.131 267.488 70.5322C267.919 69.9334 268.518 69.4664 269.28 69.1315C270.043 68.7964 270.913 68.6289 271.888 68.6289C272.885 68.6289 273.752 68.7985 274.485 69.1377C275.222 69.4727 275.795 69.9438 276.201 70.551C276.609 71.1582 276.816 71.8618 276.823 72.6616H273.844Z" fill="url(#paint17_linear_103_849)"/>
</g>
<defs>
<filter id="filter0_dd_103_849" x="0" y="-60" width="387" height="279" filterUnits="userSpaceOnUse" color-interpolation-filters="sRGB">
<feFlood flood-opacity="0" result="BackgroundImageFix"/>
<feColorMatrix in="SourceAlpha" type="matrix" values="0 0 0 0 0 0 0 0 0 0 0 0 0 0 0 0 0 0 127 0" result="hardAlpha"/>
<feOffset dx="10" dy="10"/>
<feGaussianBlur stdDeviation="50"/>
<feComposite in2="hardAlpha" operator="out"/>
<feColorMatrix type="matrix" values="0 0 0 0 1 0 0 0 0 0.895167 0 0 0 0 0.691667 0 0 0 0.3 0"/>
<feBlend mode="normal" in2="BackgroundImageFix" result="effect1_dropShadow_103_849"/>
<feColorMatrix in="SourceAlpha" type="matrix" values="0 0 0 0 0 0 0 0 0 0 0 0 0 0 0 0 0 0 127 0" result="hardAlpha"/>
<feOffset dx="2" dy="2"/>
<feGaussianBlur stdDeviation="10"/>
<feComposite in2="hardAlpha" operator="out"/>
<feColorMatrix type="matrix" values="0 0 0 0 1 0 0 0 0 0.875333 0 0 0 0 0.633333 0 0 0 0.1 0"/>
<feBlend mode="normal" in2="effect1_dropShadow_103_849" result="effect2_dropShadow_103_849"/>
<feBlend mode="normal" in="SourceGraphic" in2="effect2_dropShadow_103_849" result="shape"/>
</filter>
<linearGradient id="paint0_linear_103_849" x1="183.5" y1="30" x2="209.003" y2="79.9303" gradientUnits="userSpaceOnUse">
<stop stop-color="#FFF3E1"/>
<stop offset="1" stop-color="#DAC4A4"/>
</linearGradient>
<linearGradient id="paint1_linear_103_849" x1="183.5" y1="30" x2="209.003" y2="79.9303" gradientUnits="userSpaceOnUse">
<stop stop-color="#FFF3E1"/>
<stop offset="1" stop-color="#DAC4A4"/>
</linearGradient>
<linearGradient id="paint2_linear_103_849" x1="183.5" y1="30" x2="209.003" y2="79.9303" gradientUnits="userSpaceOnUse">
<stop stop-color="#FFF3E1"/>
<stop offset="1" stop-color="#DAC4A4"/>
</linearGradient>
<linearGradient id="paint3_linear_103_849" x1="183.5" y1="30" x2="209.003" y2="79.9303" gradientUnits="userSpaceOnUse">
<stop stop-color="#FFF3E1"/>
<stop offset="1" stop-color="#DAC4A4"/>
</linearGradient>
<linearGradient id="paint4_linear_103_849" x1="183.5" y1="30" x2="209.003" y2="79.9303" gradientUnits="userSpaceOnUse">
<stop stop-color="#FFF3E1"/>
<stop offset="1" stop-color="#DAC4A4"/>
</linearGradient>
<linearGradient id="paint5_linear_103_849" x1="183.5" y1="30" x2="209.003" y2="79.9303" gradientUnits="userSpaceOnUse">
<stop stop-color="#FFF3E1"/>
<stop offset="1" stop-color="#DAC4A4"/>
</linearGradient>
<linearGradient id="paint6_linear_103_849" x1="183.5" y1="30" x2="209.003" y2="79.9303" gradientUnits="userSpaceOnUse">
<stop stop-color="#FFF3E1"/>
<stop offset="1" stop-color="#DAC4A4"/>
</linearGradient>
<linearGradient id="paint7_linear_103_849" x1="183.5" y1="30" x2="209.003" y2="79.9303" gradientUnits="userSpaceOnUse">
<stop stop-color="#FFF3E1"/>
<stop offset="1" stop-color="#DAC4A4"/>
</linearGradient>
<linearGradient id="paint8_linear_103_849" x1="183.5" y1="30" x2="209.003" y2="79.9303" gradientUnits="userSpaceOnUse">
<stop stop-color="#FFF3E1"/>
<stop offset="1" stop-color="#DAC4A4"/>
</linearGradient>
<linearGradient id="paint9_linear_103_849" x1="183.5" y1="30" x2="209.003" y2="79.9303" gradientUnits="userSpaceOnUse">
<stop stop-color="#FFF3E1"/>
<stop offset="1" stop-color="#DAC4A4"/>
</linearGradient>
<linearGradient id="paint10_linear_103_849" x1="183.5" y1="30" x2="209.003" y2="79.9303" gradientUnits="userSpaceOnUse">
<stop stop-color="#FFF3E1"/>
<stop offset="1" stop-color="#DAC4A4"/>
</linearGradient>
<linearGradient id="paint11_linear_103_849" x1="183.5" y1="30" x2="209.003" y2="79.9303" gradientUnits="userSpaceOnUse">
<stop stop-color="#FFF3E1"/>
<stop offset="1" stop-color="#DAC4A4"/>
</linearGradient>
<linearGradient id="paint12_linear_103_849" x1="183.5" y1="30" x2="209.003" y2="79.9303" gradientUnits="userSpaceOnUse">
<stop stop-color="#FFF3E1"/>
<stop offset="1" stop-color="#DAC4A4"/>
</linearGradient>
<linearGradient id="paint13_linear_103_849" x1="183.5" y1="30" x2="209.003" y2="79.9303" gradientUnits="userSpaceOnUse">
<stop stop-color="#FFF3E1"/>
<stop offset="1" stop-color="#DAC4A4"/>
</linearGradient>
<linearGradient id="paint14_linear_103_849" x1="183.5" y1="30" x2="209.003" y2="79.9303" gradientUnits="userSpaceOnUse">
<stop stop-color="#FFF3E1"/>
<stop offset="1" stop-color="#DAC4A4"/>
</linearGradient>
<linearGradient id="paint15_linear_103_849" x1="183.5" y1="30" x2="209.003" y2="79.9303" gradientUnits="userSpaceOnUse">
<stop stop-color="#FFF3E1"/>
<stop offset="1" stop-color="#DAC4A4"/>
</linearGradient>
<linearGradient id="paint16_linear_103_849" x1="183.5" y1="30" x2="209.003" y2="79.9303" gradientUnits="userSpaceOnUse">
<stop stop-color="#FFF3E1"/>
<stop offset="1" stop-color="#DAC4A4"/>
</linearGradient>
<linearGradient id="paint17_linear_103_849" x1="183.5" y1="30" x2="209.003" y2="79.9303" gradientUnits="userSpaceOnUse">
<stop stop-color="#FFF3E1"/>
<stop offset="1" stop-color="#DAC4A4"/>
</linearGradient>
</defs>
</svg>
